HIERARCHY
ROOT Hips
{
	OFFSET 0.00000 0.00000 0.00000
	CHANNELS 6 Xposition Yposition Zposition Zrotation Yrotation Xrotation 
	JOINT LHipJoint
	{
		OFFSET 0 0 0
		CHANNELS 3 Zrotation Yrotation Xrotation
		JOINT LeftUpLeg
		{
			OFFSET 1.62964 -1.40469 0.78906
			CHANNELS 3 Zrotation Yrotation Xrotation
			JOINT LeftLeg
			{
				OFFSET 2.29640 -6.30932 0.00000
				CHANNELS 3 Zrotation Yrotation Xrotation
				JOINT LeftFoot
				{
					OFFSET 2.29451 -6.30412 0.00000
					CHANNELS 3 Zrotation Yrotation Xrotation
					JOINT LeftToeBase
					{
						OFFSET 0.03611 -0.09921 1.56387
						CHANNELS 3 Zrotation Yrotation Xrotation
						End Site
						{
							OFFSET 0.00000 -0.00000 0.80291
						}
					}
				}
			}
		}
	}
	JOINT RHipJoint
	{
		OFFSET 0 0 0
		CHANNELS 3 Zrotation Yrotation Xrotation
		JOINT RightUpLeg
		{
			OFFSET -1.73712 -1.40469 0.78906
			CHANNELS 3 Zrotation Yrotation Xrotation
			JOINT RightLeg
			{
				OFFSET -2.28137 -6.26801 0.00000
				CHANNELS 3 Zrotation Yrotation Xrotation
				JOINT RightFoot
				{
					OFFSET -2.28681 -6.28298 0.00000
					CHANNELS 3 Zrotation Yrotation Xrotation
					JOINT RightToeBase
					{
						OFFSET -0.15927 -0.43759 1.61103
						CHANNELS 3 Zrotation Yrotation Xrotation
						End Site
						{
							OFFSET -0.00000 -0.00000 0.84630
						}
					}
				}
			}
		}
	}
	JOINT LowerBack
	{
		OFFSET 0 0 0
		CHANNELS 3 Zrotation Yrotation Xrotation
		JOINT Spine
		{
			OFFSET -0.04227 2.04338 -0.00225
			CHANNELS 3 Zrotation Yrotation Xrotation
			JOINT Spine1
			{
				OFFSET -0.02148 2.04482 -0.04273
				CHANNELS 3 Zrotation Yrotation Xrotation
				JOINT Neck
				{
					OFFSET 0 0 0
					CHANNELS 3 Zrotation Yrotation Xrotation
					JOINT Neck1
					{
						OFFSET 0.09180 1.44629 0.19359
						CHANNELS 3 Zrotation Yrotation Xrotation
						JOINT Head
						{
							OFFSET 0.00887 1.40645 0.14750
							CHANNELS 3 Zrotation Yrotation Xrotation
							End Site
							{
								OFFSET -0.00669 1.50671 0.03707
							}
						}
					}
				}
				JOINT LeftShoulder
				{
					OFFSET 0 0 0
					CHANNELS 3 Zrotation Yrotation Xrotation
					JOINT LeftArm
					{
						OFFSET 2.17674 1.86763 -0.06520
						CHANNELS 3 Zrotation Yrotation Xrotation
						JOINT LeftForeArm
						{
							OFFSET 4.65776 -0.00000 0.00000
							CHANNELS 3 Zrotation Yrotation Xrotation
							JOINT LeftHand
							{
								OFFSET 3.55539 -0.00000 0.00000
								CHANNELS 3 Zrotation Yrotation Xrotation
								JOINT LeftFingerBase
								{
									OFFSET 0 0 0
									CHANNELS 3 Zrotation Yrotation Xrotation
									JOINT LeftHandIndex1
									{
										OFFSET 0.70726 -0.00000 0.00000
										CHANNELS 3 Zrotation Yrotation Xrotation
										End Site
										{
											OFFSET 0.57022 -0.00000 0.00000
										}
									}
								}
								JOINT LThumb
								{
									OFFSET 0 0 0
									CHANNELS 3 Zrotation Yrotation Xrotation
									End Site
									{
										OFFSET 0.57892 -0.00000 0.57892
									}
								}
							}
						}
					}
				}
				JOINT RightShoulder
				{
					OFFSET 0 0 0
					CHANNELS 3 Zrotation Yrotation Xrotation
					JOINT RightArm
					{
						OFFSET -2.80694 1.55459 -0.32496
						CHANNELS 3 Zrotation Yrotation Xrotation
						JOINT RightForeArm
						{
							OFFSET -4.71925 -0.00000 -0.00000
							CHANNELS 3 Zrotation Yrotation Xrotation
							JOINT RightHand
							{
								OFFSET -3.56990 -0.00000 0.00000
								CHANNELS 3 Zrotation Yrotation Xrotation
								JOINT RightFingerBase
								{
									OFFSET 0 0 0
									CHANNELS 3 Zrotation Yrotation Xrotation
									JOINT RightHandIndex1
									{
										OFFSET -0.50776 -0.00000 0.00000
										CHANNELS 3 Zrotation Yrotation Xrotation
										End Site
										{
											OFFSET -0.40937 -0.00000 0.00000
										}
									}
								}
								JOINT RThumb
								{
									OFFSET 0 0 0
									CHANNELS 3 Zrotation Yrotation Xrotation
									End Site
									{
										OFFSET -0.41562 -0.00000 0.41562
									}
								}
							}
						}
					}
				}
			}
		}
	}
}
MOTION
Frames: 8
Frame Time: .0083333
8.6213 16.3039 31.4018 0 0 0 0 0 0 -21 0 0 0 0 0 0 0 0 0 0 0 0 0 0 21 0 0 0 0 0 0 0 0 0 0 0 0 0 0 0 0 0 0 0 0 0 0 -16 0 0 21 0 0 11 0 0 0 -8 0 0 0 0 0 0 0 0 0 0 0 0 0 0 0 0 0 0 0 0 8 0 0 0 0 0 0 0 0 0 0 0 0 0 0 0 0 0
8.6213 16.3039 31.4018 178.8410 -1.6849 -153.1670 0.0000 0.0000 0.0000 -17.4097 -17.1871 -21.4736 0.2294 3.0829 8.5096 0.2316 0.2281 -9.1760 5.4972 -13.9228 -42.9289 0.0000 0.0000 0.0000 18.6545 14.1448 -20.6896 -0.1533 -2.5226 6.9523 -1.1443 -5.2383 -22.7308 -4.0704 12.2534 -36.6345 -7.0418 -1.1665 -29.7043 0.1080 0.0945 -1.6432 3.9072 -0.6854 13.7568 -2.1117 -2.2371 -3.8268 3.8402 -6.4130 25.7767 0.9681 -3.7513 8.8492 0.0000 -0.0000 0.0000 -85.4819 2.1653 -5.1796 5.5165 -9.4533 -0.4565 -0.0000 -0.0000 27.0541 20.0634 -8.9665 -3.2579 -7.1250 0.0000 -0.0000 -4.9202 20.4608 2.9004 0.0000 -0.0000 0.0000 91.4985 -7.1403 -8.6512 -12.9188 21.1681 -2.4239 0.0000 0.0000 8.5620 -14.5027 -52.5733 11.6080 7.1250 -0.0000 -0.0000 64.0487 -76.5661 -51.0839
8.6218 16.3009 31.3971 178.8770 -1.5755 -153.0370 0.0000 0.0000 0.0000 -17.3421 -17.1806 -21.5980 0.2288 3.0786 8.4976 0.2340 0.3135 -9.2556 5.4173 -13.8389 -42.5958 0.0000 0.0000 0.0000 18.6291 14.2463 -20.8272 -0.1540 -2.5289 6.9697 -1.1588 -5.1010 -22.7699 -4.0302 12.2005 -36.4448 -7.0120 -1.1291 -29.9075 0.0719 0.1498 -1.6213 3.8712 -0.6648 13.8672 -2.1268 -2.1470 -4.0772 3.9858 -6.3355 25.9555 1.0186 -3.6987 8.9607 0.0000 -0.0000 0.0000 -85.4875 2.2926 -7.1457 5.3290 -9.1385 -0.4262 -0.0000 -0.0000 29.1214 19.9067 -8.8174 -3.1772 -7.1250 0.0000 -0.0000 -5.0319 20.6283 2.9477 0.0000 -0.0000 0.0000 91.6244 -7.1906 -9.4700 -12.6851 20.8241 -2.3402 0.0000 0.0000 9.0689 -14.2232 -52.4180 11.3578 7.1250 -0.0000 -0.0000 63.5533 -76.4063 -50.4679
8.6236 16.3011 31.3948 178.8550 -1.5948 -153.0130 0.0000 0.0000 0.0000 -17.3455 -17.1893 -21.6109 0.2282 3.0746 8.4866 0.2323 0.2948 -9.2142 5.2578 -13.6684 -41.9250 0.0000 0.0000 0.0000 18.5846 14.3022 -20.7950 -0.1522 -2.5139 6.9283 -1.1748 -5.0349 -22.8646 -3.9653 12.1140 -36.1366 -7.0454 -1.1484 -29.9290 0.0436 0.1445 -1.5998 3.8565 -0.6693 13.9015 -2.0694 -2.0765 -4.2114 4.0588 -6.2686 26.0472 1.0354 -3.6529 9.0162 -0.0000 0.0000 0.0000 -85.4400 2.4586 -8.4902 5.1652 -8.8628 -0.4006 -0.0000 -0.0000 30.5583 19.9417 -9.0092 -3.2518 -7.1250 0.0000 -0.0000 -5.0079 20.4234 2.9568 -0.0000 0.0000 0.0000 91.7541 -7.1477 -10.5015 -12.3911 20.3886 -2.2367 0.0000 0.0000 9.9322 -13.9201 -52.2257 11.0842 7.1250 -0.0000 -0.0000 62.9413 -76.2232 -49.7244
8.6222 16.3014 31.3934 178.8720 -1.6017 -152.9880 0.0000 0.0000 0.0000 -17.3116 -17.2440 -21.6099 0.2274 3.0692 8.4716 0.2317 0.3120 -9.2107 5.2403 -13.6494 -41.8507 0.0000 0.0000 0.0000 18.5843 14.3848 -20.7592 -0.1503 -2.4981 6.8844 -1.1642 -5.1405 -22.8388 -3.9536 12.0984 -36.0809 -7.0258 -1.1448 -29.9393 0.0224 0.1492 -1.5839 3.8248 -0.6659 13.9242 -1.7898 -2.1590 -3.9636 3.7907 -6.3356 25.8590 0.8993 -3.6870 8.8900 0.0000 -0.0000 0.0000 -85.2616 2.6660 -8.5654 4.9866 -8.5618 -0.3735 -0.0000 -0.0000 30.6452 19.9926 -9.2545 -3.3486 -7.1250 0.0000 -0.0000 -4.9732 20.1611 2.9655 0.0000 -0.0000 0.0000 91.8479 -7.0809 -11.3425 -12.1070 19.9650 -2.1387 0.0000 0.0000 10.6010 -13.0448 -52.2574 10.3823 7.1250 -0.0000 -0.0000 63.4962 -75.8943 -49.8759
8.6209 16.3023 31.3901 178.8920 -1.6288 -152.9740 0.0000 0.0000 0.0000 -17.2852 -17.2773 -21.5762 0.2254 3.0558 8.4341 0.2333 0.3256 -9.2466 5.3589 -13.7769 -42.3512 0.0000 0.0000 0.0000 18.6102 14.4314 -20.6826 -0.1462 -2.4641 6.7900 -1.1553 -5.2434 -22.8258 -3.9858 12.1415 -36.2343 -7.0124 -1.1638 -29.9508 0.0237 0.1218 -1.5755 3.8082 -0.6778 13.9425 -1.8535 -2.0309 -4.1008 4.0920 -6.1965 25.8243 1.0225 -3.5917 8.9101 -0.0000 -0.0000 0.0000 -85.0160 2.7451 -8.6714 4.6569 -8.0046 -0.3260 -0.0000 -0.0000 30.6130 19.9684 -9.3598 -3.3818 -7.1250 0.0000 -0.0000 -4.9915 20.0516 2.9888 -0.0000 -0.0000 0.0000 91.9092 -7.1242 -11.7830 -11.9109 19.6709 -2.0722 0.0000 0.0000 10.6742 -11.5354 -51.8919 9.1234 7.1250 -0.0000 -0.0000 62.9380 -75.1851 -48.6219
8.6255 16.3030 31.3830 178.8990 -1.7255 -153.0240 0.0000 0.0000 0.0000 -17.2346 -17.3572 -21.3970 0.2201 3.0201 8.3347 0.2361 0.3362 -9.3053 5.3253 -13.7410 -42.2097 0.0000 0.0000 0.0000 18.6674 14.5290 -20.4730 -0.1420 -2.4283 6.6910 -1.1591 -5.4087 -22.9588 -3.9714 12.1222 -36.1658 -7.0721 -1.2259 -29.9028 0.0628 0.0556 -1.5693 3.8580 -0.7104 13.9351 -1.5281 -2.1587 -3.9470 3.5667 -6.2819 25.7498 0.7867 -3.6531 8.8322 0.0000 -0.0000 0.0000 -84.9002 2.7537 -8.7680 4.2985 -7.3969 -0.2780 -0.0000 -0.0000 30.5904 20.1441 -9.2695 -3.3815 -7.1250 0.0000 -0.0000 -4.8648 20.1352 2.9032 0.0000 -0.0000 0.0000 91.9427 -7.3558 -11.8938 -11.8211 19.5359 -2.0421 0.0000 0.0000 10.5582 -11.1314 -51.8149 8.7916 7.1250 -0.0000 -0.0000 62.8878 -75.0029 -48.3824
8.6194 16.3026 31.3847 178.9860 -1.6309 -152.8700 0.0000 0.0000 0.0000 -17.0866 -17.5652 -21.5426 0.2225 3.0366 8.3806 0.2385 0.5303 -9.4314 5.1858 -13.5900 -41.6192 0.0000 0.0000 0.0000 18.6993 14.4790 -20.8271 -0.1504 -2.4993 6.8878 -1.1705 -5.1549 -22.9002 -3.9679 12.1176 -36.1494 -6.9072 -1.1167 -29.9570 0.0295 0.1327 -1.6470 3.7604 -0.6670 13.8627 -1.5044 -2.1310 -4.0519 3.5910 -6.2499 25.8002 0.7907 -3.6301 8.8684 -0.0000 -0.0000 0.0000 -84.8380 2.7247 -8.7879 3.9735 -6.8440 -0.2377 -0.0000 -0.0000 30.6656 20.4457 -9.3222 -3.4559 -7.1250 0.0000 -0.0000 -4.6494 20.0590 2.7817 -0.0000 -0.0000 0.0000 92.0326 -7.6691 -12.0778 -11.7799 19.4737 -2.0283 0.0000 0.0000 10.7274 -12.2338 -52.2962 9.7342 7.1250 -0.0000 -0.0000 64.0472 -75.5951 -50.0522
